<svg width="24" height="24" viewBox="0 0 24 24" fill="none" xmlns="http://www.w3.org/2000/svg">
<path d="M22.6667 9.79897H19.8562L15.6752 5.40991C15.5516 5.27968 15.4046 5.17641 15.2428 5.10606C15.081 5.0357 14.9075 4.99966 14.7324 5H4.02667C3.80718 4.99994 3.59107 5.05675 3.39752 5.16541C3.20397 5.27406 3.03896 5.4312 2.91714 5.62287L0.0952395 10.0659C0.032888 10.1646 -0.000249611 10.2804 1.4157e-06 10.3988V15.1978C1.4157e-06 15.569 0.140477 15.9251 0.390526 16.1875C0.640574 16.45 0.979713 16.5975 1.33333 16.5975H3.10476C3.23591 17.2755 3.58632 17.8851 4.09662 18.323C4.60691 18.7608 5.2457 19 5.90476 19C6.56382 19 7.20262 18.7608 7.71291 18.323C8.2232 17.8851 8.57361 17.2755 8.70476 16.5975H15.2952C15.4264 17.2755 15.7768 17.8851 16.2871 18.323C16.7974 18.7608 17.4362 19 18.0952 19C18.7543 19 19.3931 18.7608 19.9034 18.323C20.4137 17.8851 20.7641 17.2755 20.8952 16.5975H22.6667C23.0203 16.5975 23.3594 16.45 23.6095 16.1875C23.8595 15.9251 24 15.569 24 15.1978V11.1987C24 10.8274 23.8595 10.4714 23.6095 10.2089C23.3594 9.94644 23.0203 9.79897 22.6667 9.79897ZM4.21375 6.46605C4.23111 6.43873 4.25462 6.41632 4.28219 6.4008C4.30976 6.38528 4.34055 6.37713 4.37184 6.37707L14.2459 6.39535C14.2963 6.39558 14.3446 6.41679 14.3802 6.45434L17.767 9.82484L1.99767 9.80655L4.21375 6.46605ZM5.90476 17.7972C4.95048 17.7566 4.22774 16.9355 4.22342 15.9329C4.21907 14.9255 4.94589 14.0924 5.90476 14.0516C6.90241 14.009 7.7328 14.8847 7.72827 15.9329C7.72377 16.9764 6.898 17.8396 5.90476 17.7972ZM18.0952 17.7972C17.1647 17.7802 16.4762 16.9739 16.4399 15.9976C16.402 14.9795 17.1248 14.0693 18.0952 14.0516C19.0811 14.0335 19.8481 14.9633 19.8095 15.9976C19.7725 16.9908 19.0419 17.8146 18.0952 17.7972ZM22.4101 15.0426C22.4101 15.0957 22.39 15.1465 22.3543 15.184C22.3186 15.2215 22.2701 15.2426 22.2196 15.2426L20.9212 15.2167C20.7901 14.5387 20.4397 13.9291 19.9294 13.4913C19.4191 13.0534 18.7803 12.8142 18.1212 12.8142C17.4622 12.8142 16.8234 13.0534 16.3131 13.4913C15.8028 13.9291 15.4524 14.5387 15.3212 15.2167H8.73075C8.5996 14.5387 8.24919 13.9291 7.7389 13.4913C7.22861 13.0534 6.58981 12.8142 5.93075 12.8142C5.27169 12.8142 4.6329 13.0534 4.1226 13.4913C3.61231 13.9291 3.2619 14.5387 3.13075 15.2167L1.71795 15.2243C1.66743 15.2243 1.61898 15.2032 1.58326 15.1657C1.54754 15.1282 1.52747 15.0774 1.52747 15.0243L1.49771 11.2027L22.1898 11.221C22.2404 11.221 22.2888 11.2421 22.3245 11.2796C22.3603 11.3171 22.3803 11.3679 22.3803 11.4209L22.4101 15.0426Z" fill="#002E75"/>
</svg>
