<svg width="24" height="24" viewBox="0 0 24 24" fill="none" xmlns="http://www.w3.org/2000/svg">
<path d="M7.72055 16.0325L7.18278 15.4938L8.43167 14.2285L8.96708 14.7672L7.72055 16.0325ZM5.3796 15.2679L3.12593 16.5034L2.28272 14.9361L4.53521 13.7017L5.3796 15.2679ZM2.69312 18.9579L4.36775 20.6382L3.12122 21.9023L1.44659 20.2232L2.69312 18.9579ZM5.38904 21.1781C7.09905 21.3398 11.5215 21.196 16.3119 16.394L17.5596 17.6581C12.3329 22.8989 7.35732 23.1557 5.22393 22.9548L5.38904 21.1781ZM16.3119 16.394C20.877 11.8157 21.6341 7.9663 21.7285 6.2955L23.4951 6.39658C23.3771 8.49905 22.4396 12.7658 17.5596 17.6581L16.3119 16.394ZM14.6903 9.04489L14.3518 8.70478L15.5972 7.44068L15.9357 7.7796L14.6903 9.04489ZM14.083 4.3821L15.5689 2.37952L16.9853 3.44978L15.4993 5.45118L14.083 4.3821ZM20.5704 1.94309L22.4219 3.79821L21.1742 5.0635L19.3238 3.20838L20.5704 1.94309ZM15.313 8.41224C15.938 7.7796 15.938 7.7796 15.938 7.78197H15.9404L15.9439 7.78673C16 7.84371 16.0501 7.90626 16.0937 7.97343C16.1574 8.06857 16.227 8.19343 16.2859 8.35159C16.4295 8.75987 16.4652 9.19878 16.3897 9.62521C16.2317 10.6539 15.5288 12.0131 13.7292 13.8183L12.4814 12.553C14.1667 10.8643 14.5677 9.83688 14.642 9.3517C14.6773 9.12099 14.6408 9.00683 14.6302 8.98067C14.6231 8.96481 14.6231 8.96244 14.6302 8.97354C14.6407 8.98995 14.6525 9.00546 14.6655 9.01991L14.6773 9.0318L14.6891 9.04251L15.313 8.41224ZM13.7292 13.8183C11.9283 15.6234 10.5733 16.3274 9.55202 16.4844C9.02959 16.5653 8.60857 16.5011 8.28898 16.381C8.10996 16.3149 7.94269 16.2202 7.79366 16.1003L7.7347 16.0468L7.72644 16.0397L7.7229 16.0361L7.72173 16.0337C7.72173 16.0337 7.72055 16.0325 8.3444 15.3999C8.96944 14.7672 8.9659 14.766 8.9659 14.766L8.96119 14.7613L8.95411 14.7553L8.94232 14.7434L8.8975 14.7078C8.8865 14.7006 8.88925 14.7014 8.90576 14.7102C8.93524 14.7209 9.05081 14.7577 9.28314 14.722C9.77138 14.6459 10.7974 14.2416 12.4814 12.553L13.7292 13.8183ZM15.5689 2.37833C16.7718 0.76104 19.1351 0.504177 20.5704 1.94309L19.3238 3.20838C18.6964 2.5793 17.5832 2.64471 16.9853 3.44978L15.5689 2.37833ZM21.7273 6.29669C21.7509 5.88523 21.5634 5.45474 21.1742 5.06469L22.4231 3.7994C23.0564 4.43443 23.5552 5.33345 23.4951 6.39658L21.7273 6.29669ZM4.36775 20.6382C4.69088 20.9641 5.03996 21.1472 5.38786 21.1793L5.22393 22.9548C4.35714 22.8727 3.64837 22.4327 3.12003 21.9035L4.36775 20.6382ZM14.3518 8.70478C13.1902 7.54057 13.1041 5.7009 14.0818 4.38329L15.4981 5.45237C15.0229 6.09334 15.0936 6.93409 15.5984 7.44187L14.3518 8.70478ZM3.12475 16.5046C2.16125 17.0326 2.01148 18.2765 2.69194 18.9591L1.44423 20.2232C-0.136056 18.638 0.351002 15.9945 2.28154 14.9373L3.12475 16.5046ZM7.18278 15.495C6.72992 15.0407 6.0011 14.929 5.37842 15.2691L4.53404 13.7029C5.81241 13.0013 7.39741 13.1951 8.43049 14.2297L7.18278 15.495Z" fill="#002E75"/>
</svg>
