<svg width="24" height="24" viewBox="0 0 24 24" fill="none" xmlns="http://www.w3.org/2000/svg">
<path d="M11.6848 3.58497L14.4353 10.8732L14.8209 11.9021L19.7521 11.9042C20.0605 11.903 20.3636 11.9811 20.63 12.1305C20.8398 12.2431 21.0182 12.4026 21.1502 12.5956C21.2822 12.7887 21.3638 13.0095 21.3882 13.2393C21.4082 13.4393 21.385 13.6411 21.3201 13.832C21.2553 14.023 21.1502 14.199 21.0114 14.3491C20.8726 14.4992 20.7031 14.6201 20.5135 14.7043C20.3238 14.7885 20.1182 14.8341 19.9094 14.8383L4.19274 14.8283C3.91685 14.8335 3.64506 14.7634 3.40885 14.6262C3.18326 14.4949 2.99714 14.3093 2.8688 14.0877C2.74047 13.8662 2.67436 13.6162 2.67699 13.3626L2.67636 12.6107L2.67866 10.3401L2.6741 8.12435L3.88481 8.12122L5.03662 10.9237L5.44472 11.9018L10.5275 11.9026L10.5096 3.5811L11.6848 3.58497ZM12.6694 2.10103C12.549 2.03777 12.4146 2.00313 12.2775 2L9.68092 2.00154C9.4777 2.00923 9.28488 2.09006 9.14066 2.22801C8.99643 2.36596 8.9113 2.55098 8.90213 2.74644L8.89586 10.3101L6.53561 10.3079L5.15385 7.0339C5.08844 6.87713 4.97195 6.745 4.82185 6.65734C4.70144 6.59408 4.56706 6.55944 4.4299 6.55631L1.81139 6.57643C1.60571 6.57685 1.40786 6.65239 1.25786 6.78777C1.10786 6.92315 1.01689 7.10828 1.00334 7.30571L1.00147 12.5912L1 13.3506C0.999593 13.8817 1.14472 14.4036 1.42077 14.8635C1.69681 15.3235 2.09401 15.7053 2.57233 15.9705C3.04952 16.234 3.58988 16.3733 4.1401 16.3746L19.849 16.3827C20.5409 16.3901 21.2157 16.1758 21.767 15.7735C22.3183 15.3712 22.7147 14.8038 22.8938 14.1608C23.0729 13.5179 23.0245 12.8358 22.7561 12.2222C22.4877 11.6087 22.0147 11.0985 21.4117 10.7721C20.8955 10.4894 20.3124 10.3391 19.7185 10.3356L15.929 10.3368L13.0066 2.51933C12.9483 2.34638 12.829 2.19844 12.6694 2.10103Z" fill="#002E75"/>
<path d="M1 20.4019H23V22H1V20.4019Z" fill="#002E75"/>
</svg>
