<svg width="24" height="24" viewBox="0 0 24 24" fill="none" xmlns="http://www.w3.org/2000/svg">
<path d="M12.3937 13.5202C13.1382 13.5959 13.8279 13.9428 14.3294 14.4937C14.8309 15.0446 15.1085 15.7604 15.1086 16.5026C15.1086 18.0438 14.1613 19.3191 12.8875 20.1607C11.6077 21.0083 9.89448 21.5 8.05431 21.5C6.21414 21.5 4.50095 21.0083 3.2211 20.1607C1.94528 19.3211 1 18.0438 1 16.5026C1 15.7074 1.31852 14.9447 1.8855 14.3824C2.45247 13.8201 3.22145 13.5042 4.02328 13.5042H12.0853L12.3937 13.5202ZM20.1434 13.5042C20.9452 13.5042 21.7142 13.8201 22.2812 14.3824C22.8481 14.9447 23.1667 15.7074 23.1667 16.5026C23.1667 17.8919 22.298 18.9234 21.1854 19.557C20.0809 20.1867 18.6358 20.5005 17.1201 20.5005C16.6109 20.4992 16.1137 20.4625 15.6286 20.3906C16.1003 19.8389 16.4953 19.2052 16.7593 18.4916C16.8789 18.4982 16.9992 18.5016 17.1201 18.5016C18.3879 18.5016 19.4621 18.2357 20.1817 17.8259C20.8932 17.4201 21.1511 16.9524 21.1511 16.5026C21.1511 16.2376 21.045 15.9833 20.856 15.7959C20.667 15.6085 20.4107 15.5032 20.1434 15.5032H17.0193C16.8675 14.7778 16.5549 14.095 16.1043 13.5042H20.1434ZM4.02328 15.5032C3.756 15.5032 3.49968 15.6085 3.31068 15.7959C3.12169 15.9833 3.01552 16.2376 3.01552 16.5026C3.01552 17.1683 3.42467 17.8939 4.3377 18.4976C5.24468 19.0973 6.55477 19.5011 8.05431 19.5011C9.55184 19.5011 10.8639 19.0973 11.7709 18.4976C12.684 17.8939 13.0931 17.1683 13.0931 16.5026C13.0932 16.2722 13.0129 16.0489 12.866 15.8704C12.7191 15.6919 12.5145 15.5692 12.2869 15.5231L12.0853 15.5032H4.02328ZM8.5199 2.52799C9.63768 2.64175 10.6732 3.1625 11.4264 3.98955C12.1795 4.8166 12.5967 5.89121 12.5973 7.00563L12.5731 7.46539C12.4575 8.57326 11.932 9.59933 11.0982 10.3454C10.2644 11.0915 9.18137 11.5048 8.05834 11.5053L7.59477 11.4813C6.55644 11.3762 5.58643 10.9191 4.84841 10.1872C4.11038 9.45522 3.64952 8.49318 3.54358 7.46339L3.5194 7.00363C3.5194 5.80954 3.99754 4.66433 4.8487 3.81979C5.69986 2.97525 6.85435 2.50053 8.05834 2.5L8.5199 2.52799ZM17.628 4.50295C18.0912 4.50295 18.5499 4.59343 18.9778 4.76923C19.4057 4.94503 19.7946 5.2027 20.1221 5.52753C20.4496 5.85237 20.7094 6.238 20.8867 6.66242C21.0639 7.08683 21.1552 7.54172 21.1552 8.00111C21.1552 8.46049 21.0639 8.91538 20.8867 9.33979C20.7094 9.76421 20.4496 10.1498 20.1221 10.4747C19.7946 10.7995 19.4057 11.0572 18.9778 11.233C18.5499 11.4088 18.0912 11.4993 17.628 11.4993C16.6926 11.4993 15.7954 11.1307 15.1339 10.4747C14.4725 9.81864 14.1009 8.92887 14.1009 8.00111C14.1009 7.07334 14.4725 6.18356 15.1339 5.52753C15.7954 4.8715 16.6926 4.50295 17.628 4.50295ZM8.05834 4.50295C7.72696 4.50295 7.39883 4.56768 7.09267 4.69345C6.78651 4.81922 6.50833 5.00357 6.27401 5.23596C6.03969 5.46836 5.85381 5.74425 5.727 6.04789C5.60019 6.35153 5.53492 6.67697 5.53492 7.00563C5.53492 7.33429 5.60019 7.65972 5.727 7.96336C5.85381 8.267 6.03969 8.5429 6.27401 8.77529C6.50833 9.00769 6.78651 9.19203 7.09267 9.31781C7.39883 9.44358 7.72696 9.50831 8.05834 9.50831C8.7276 9.50831 9.36944 9.24464 9.84268 8.77529C10.3159 8.30595 10.5818 7.66938 10.5818 7.00563C10.5818 6.34188 10.3159 5.70531 9.84268 5.23596C9.36944 4.76662 8.7276 4.50295 8.05834 4.50295ZM17.628 6.50189C17.2271 6.50189 16.8426 6.65985 16.5591 6.941C16.2756 7.22216 16.1164 7.60349 16.1164 8.00111C16.1164 8.39872 16.2756 8.78005 16.5591 9.06121C16.8426 9.34236 17.2271 9.50032 17.628 9.50032C18.0289 9.50032 18.4134 9.34236 18.6969 9.06121C18.9804 8.78005 19.1397 8.39872 19.1397 8.00111C19.1397 7.60349 18.9804 7.22216 18.6969 6.941C18.4134 6.65985 18.0289 6.50189 17.628 6.50189Z" fill="#002E75"/>
</svg>
